REM DIRINDEX 1\2\3,1\2\4,1\2\5,1\2\6
REM DIRNAME cjc157,folder01,folder02,folder03,folder04,folder05
TITLE ""
FILE "170 170.mp3" MP3
  TRACK 01 AUDIO
    TITLE "0:"
    INDEX 01 00:00:00
  TRACK 02 AUDIO
    TITLE "3:cjc157_6194"
    INDEX 01 00:00:15
  TRACK 03 AUDIO
    TITLE "0:"
    INDEX 01 00:02:10
  TRACK 04 AUDIO
    TITLE "4:cjc157_6195"
    INDEX 01 00:02:57
  TRACK 05 AUDIO
    TITLE "0:"
    INDEX 01 00:04:31
  TRACK 06 AUDIO
    TITLE "5:cjc157_6196"
    INDEX 01 00:05:09
  TRACK 07 AUDIO
    TITLE "0:"
    INDEX 01 00:07:33
  TRACK 08 AUDIO
    TITLE "3:cjc157_6197"
    INDEX 01 00:08:03
  TRACK 09 AUDIO
    TITLE "0:"
    INDEX 01 00:09:42
  TRACK 10 AUDIO
    TITLE "4:cjc157_6198"
    INDEX 01 00:10:12
  TRACK 11 AUDIO
    TITLE "0:"
    INDEX 01 00:11:58
  TRACK 12 AUDIO
    TITLE "5:cjc157_6199"
    INDEX 01 00:12:38
  TRACK 13 AUDIO
    TITLE "0:"
    INDEX 01 00:16:18
  TRACK 14 AUDIO
    TITLE "3:cjc157_6200"
    INDEX 01 00:16:61
  TRACK 15 AUDIO
    TITLE "0:"
    INDEX 01 00:18:74
  TRACK 16 AUDIO
    TITLE "4:cjc157_6201"
    INDEX 01 00:19:42
  TRACK 17 AUDIO
    TITLE "0:"
    INDEX 01 00:21:02
  TRACK 18 AUDIO
    TITLE "5:cjc157_6202"
    INDEX 01 00:21:47
  TRACK 19 AUDIO
    TITLE "0:"
    INDEX 01 00:24:16
  TRACK 20 AUDIO
    TITLE "5:cjc157_6203"
    INDEX 01 00:24:63
  TRACK 21 AUDIO
    TITLE "0:"
    INDEX 01 00:28:70
  TRACK 22 AUDIO
    TITLE "3:cjc157_6204"
    INDEX 01 00:29:42
  TRACK 23 AUDIO
    TITLE "0:"
    INDEX 01 00:30:67
  TRACK 24 AUDIO
    TITLE "4:cjc157_6205"
    INDEX 01 00:31:41
  TRACK 25 AUDIO
    TITLE "0:"
    INDEX 01 00:32:70
  TRACK 26 AUDIO
    TITLE "5:cjc157_6206"
    INDEX 01 00:33:50
  TRACK 27 AUDIO
    TITLE "0:"
    INDEX 01 00:36:19
  TRACK 28 AUDIO
    TITLE "3:cjc157_6207"
    INDEX 01 00:36:66
  TRACK 29 AUDIO
    TITLE "0:"
    INDEX 01 00:38:33
  TRACK 30 AUDIO
    TITLE "4:cjc157_6208"
    INDEX 01 00:39:02
  TRACK 31 AUDIO
    TITLE "0:"
    INDEX 01 00:40:44
  TRACK 32 AUDIO
    TITLE "5:cjc157_6209"
    INDEX 01 00:41:22
  TRACK 33 AUDIO
    TITLE "0:"
    INDEX 01 00:45:45
  TRACK 34 AUDIO
    TITLE "3:cjc157_6210"
    INDEX 01 00:46:17
  TRACK 35 AUDIO
    TITLE "0:"
    INDEX 01 00:46:74
  TRACK 36 AUDIO
    TITLE "4:cjc157_6211"
    INDEX 01 00:47:46
  TRACK 37 AUDIO
    TITLE "0:"
    INDEX 01 00:49:06
  TRACK 38 AUDIO
    TITLE "5:cjc157_6212"
    INDEX 01 00:49:61
  TRACK 39 AUDIO
    TITLE "0:"
    INDEX 01 00:53:09
  TRACK 40 AUDIO
    TITLE "5:cjc157_6213"
    INDEX 01 00:53:53
  TRACK 41 AUDIO
    TITLE "0:"
    INDEX 01 00:56:25
  TRACK 42 AUDIO
    TITLE "3:cjc157_6214"
    INDEX 01 00:56:71
  TRACK 43 AUDIO
    TITLE "0:"
    INDEX 01 00:58:22
  TRACK 44 AUDIO
    TITLE "4:cjc157_6215"
    INDEX 01 00:58:71
  TRACK 45 AUDIO
    TITLE "0:"
    INDEX 01 01:00:35
  TRACK 46 AUDIO
    TITLE "5:cjc157_6216"
    INDEX 01 01:00:74
  TRACK 47 AUDIO
    TITLE "0:"
    INDEX 01 01:04:09
  TRACK 48 AUDIO
    TITLE "3:cjc157_6217"
    INDEX 01 01:04:50
  TRACK 49 AUDIO
    TITLE "0:"
    INDEX 01 01:05:56
  TRACK 50 AUDIO
    TITLE "4:cjc157_6218"
    INDEX 01 01:06:26
  TRACK 51 AUDIO
    TITLE "0:"
    INDEX 01 01:07:41
  TRACK 52 AUDIO
    TITLE "5:cjc157_6219"
    INDEX 01 01:08:15
  TRACK 53 AUDIO
    TITLE "0:"
    INDEX 01 01:11:27
  TRACK 54 AUDIO
    TITLE "3:cjc157_6220"
    INDEX 01 01:12:01
  TRACK 55 AUDIO
    TITLE "0:"
    INDEX 01 01:13:63
  TRACK 56 AUDIO
    TITLE "4:cjc157_6221"
    INDEX 01 01:14:31
  TRACK 57 AUDIO
    TITLE "0:"
    INDEX 01 01:15:62
  TRACK 58 AUDIO
    TITLE "5:cjc157_6222"
    INDEX 01 01:16:40
  TRACK 59 AUDIO
    TITLE "0:"
    INDEX 01 01:19:38
  TRACK 60 AUDIO
    TITLE "3:cjc157_6223"
    INDEX 01 01:20:08
  TRACK 61 AUDIO
    TITLE "0:"
    INDEX 01 01:22:01
  TRACK 62 AUDIO
    TITLE "4:cjc157_6224"
    INDEX 01 01:22:48
  TRACK 63 AUDIO
    TITLE "0:"
    INDEX 01 01:24:57
  TRACK 64 AUDIO
    TITLE "5:cjc157_6225"
    INDEX 01 01:25:23
  TRACK 65 AUDIO
    TITLE "0:"
    INDEX 01 01:28:53
